<svg width="449" height="76" viewBox="0 0 449 76" fill="none" xmlns="http://www.w3.org/2000/svg">
<path d="M113.17 60.1571C100.769 60.1766 90.274 51.0028 88.6279 38.7124H72.4272C74.4247 61.2111 94.2884 77.8347 116.787 75.8373C136.521 74.0871 152.155 58.446 153.912 38.7124H137.711C136.072 51.0028 125.571 60.1766 113.17 60.1571Z" fill="white"/>
<path d="M48.2499 23.2274H17.9891V0H0.23999V72.903H17.9891V38.7124H48.2499V72.903H65.8819V0H48.2499V23.2274Z" fill="white"/>
<path d="M418.614 74.3343C434.58 74.3343 448.029 63.0199 448.029 45.9799C448.029 28.94 434.567 17.7491 418.614 17.7491C402.66 17.7491 388.834 29.0636 388.834 45.9799C388.834 62.8963 402.296 74.3343 418.614 74.3343ZM418.614 32.0435C426.011 32.2647 431.828 38.4456 431.6 45.8433C431.6 45.8888 431.6 45.9344 431.6 45.9799C432.043 53.2149 426.538 59.4414 419.303 59.8904C412.068 60.3328 405.842 54.8285 405.393 47.5935C405.36 47.06 405.36 46.5199 405.393 45.9864C405.12 38.5693 410.91 32.3297 418.327 32.0565C418.425 32.0565 418.523 32.0565 418.62 32.05L418.614 32.0435Z" fill="white"/>
<path d="M364.885 72.9094H381.918V39.9095C381.918 26.448 371.437 17.5149 358.333 17.5149C350.35 17.5149 345.828 19.0634 341.775 23.351H327.35V72.7858H344.501V47.7691C344.501 37.4046 348.912 32.7591 355.581 32.7591C361.059 32.7591 364.755 37.0468 364.755 43.3644V72.9094H364.878H364.885Z" fill="white"/>
<path d="M285.43 17.5149C269.464 17.5149 257.557 29.0701 257.557 45.9799C257.557 62.8897 269.587 74.4449 283.764 74.4449C289.854 74.6531 295.808 72.5711 300.447 68.6218V72.9094H317.597V23.351H304.253C299.724 19.6555 293.765 17.5149 285.43 17.5149ZM287.454 59.9229C279.945 59.9229 274.467 54.3275 274.467 45.9864C274.467 37.6453 279.945 32.0499 287.454 32.0499C294.916 32.2061 300.837 38.3806 300.681 45.8433C300.681 45.8888 300.681 45.9409 300.681 45.9864C300.915 53.4426 295.059 59.6821 287.603 59.9164C287.558 59.9164 287.506 59.9164 287.46 59.9164L287.454 59.9229Z" fill="white"/>
<path d="M213.711 72.9095V46.5851C213.711 37.5283 217.888 33.0064 224.193 33.0064C229.196 33.0064 233.25 36.8191 233.25 43.0131V73.0331H250.283V39.3175C250.394 27.3915 240.816 17.6256 228.884 17.515C228.708 17.515 228.533 17.515 228.363 17.515C220.797 17.3328 213.581 20.677 208.825 26.5717C205.006 20.664 198.343 17.2157 191.31 17.515C184.4 17.515 178.206 19.3042 174.635 23.3511H160.21V72.7859H177.361V46.5785C177.361 37.5218 181.408 32.9999 187.608 32.9999C192.735 32.9999 196.665 36.8126 196.665 43.0066V73.0266H213.698V72.9095H213.711Z" fill="white"/>
</svg>
